<svg width="32" height="40" viewBox="0 0 32 40" fill="none" xmlns="http://www.w3.org/2000/svg">
<path d="M31.9778 13.5273C31.5458 16.6992 28.8539 18.2272 28.8299 17.7272C28.7299 15.7872 26.0299 13.9353 23.4379 12.6713C20.17 11.0753 15.794 7.94332 15.658 7.45533L12.0741 29.6991C12.0741 29.6991 13.5141 31.619 12.7901 34.787C12.0741 37.959 8.76612 40.5869 5.60615 39.8749C2.44619 39.1709 0.146221 37.747 0.00222293 33.331C-0.141775 28.9191 6.75814 29.7711 6.75814 29.7711C6.75814 29.7711 9.00611 18.0432 10.2541 12.5393C11.4981 7.03133 11.9181 2.30339 12.8021 0.783411C13.6861 -0.736571 15.998 0.423415 15.998 0.423415L17.754 2.67139C18.71 3.89137 19.854 4.95936 21.142 5.83535C21.934 6.37534 22.8259 6.96734 23.5099 7.40333C26.5299 9.32731 32.4058 10.3593 31.9778 13.5313V13.5273Z" fill="#EF3030"/>
</svg>
