<svg width="40" height="48" viewBox="0 0 40 48" fill="none" xmlns="http://www.w3.org/2000/svg">
<path d="M37.8399 10.5654C35.6248 21.4408 32.3997 37.7715 32.9697 39.0065C34.2748 41.8566 32.6997 45.4018 31.9547 46.2818C29.2646 49.4319 22.0743 47.4069 21.0543 46.8068C20.0392 46.2068 16.5491 44.1067 18.0041 38.5565C19.4592 33.0063 27.0145 35.2614 27.0145 35.2614L27.7945 24.736C27.8745 23.6459 27.9995 22.5659 28.1745 21.4858L30.2146 8.68534L15.164 13.0005C15.164 13.0005 14.979 16.1656 14.709 18.7257C14.474 21.0008 14.479 23.9609 14.224 26.751C13.799 31.4462 13.1589 34.4263 13.379 35.2514C14.299 38.7765 12.0489 41.6216 10.8089 42.0366C7.75874 43.0517 4.4136 43.2017 2.30852 41.5516C0.75346 40.3366 -0.891605 38.1065 0.563452 34.0563C2.01851 30.0062 9.64881 31.2062 9.64881 31.2062L10.4438 7.21028L20.3742 5.1352L40 0C40 0 38.6299 6.69026 37.8399 10.5654Z" fill="#EF3030"/>
</svg>
