<?xml version="1.0" encoding="UTF-8"?>
<svg id="music1" xmlns="http://www.w3.org/2000/svg" version="1.1" viewBox="0 0 1600 1920">
  <!-- Generator: Adobe Illustrator 29.0.0, SVG Export Plug-In . SVG Version: 2.1.0 Build 186)  -->
  <defs>
    <style>
      .st0 {
        fill: #ef3030;
      }
    </style>
  </defs>
  <path class="st0" d="M1513.63,422.67c-88.52,435-217.6,1088.18-194.85,1137.58,52.29,113.98-10.71,255.79-40.66,290.95-107.57,125.99-395.27,45.04-436.04,21.03-40.65-24-180.14-108.03-122.07-329.94,58.15-221.9,360.47-131.72,360.47-131.72l31.19-420.97c3.19-43.55,8.23-86.89,15.13-129.91l81.52-511.9-601.96,172.62s-7.41,126.62-18.11,229.02c-9.47,90.92-9.17,209.37-19.36,321.01-17.08,187.81-42.51,306.99-33.86,339.92,36.74,140.96-53.23,254.84-102.73,271.3-122.08,40.58-255.79,46.63-340-19.44-62.17-48.65-127.95-137.88-69.78-299.88,58.15-161.99,363.46-113.98,363.46-113.98l31.81-959.75,397.22-83.07L1600,0s-54.76,267.69-86.37,422.67Z"/>
</svg>