<svg width="198" height="66" viewBox="0 0 198 66" fill="none" xmlns="http://www.w3.org/2000/svg">
<path d="M198 60.942C170.412 62.988 134.928 63.966 102.024 64.5C68.55 65.058 37.662 65.166 6 66C8.454 46.662 6.798 25.2 13.734 6C43.74 7.098 73.398 7.344 106.104 8.232C138.12 9.084 173.178 10.584 198 13.242V60.942Z" fill="#A00008"/>
<path d="M192 54.942C164.412 56.988 128.928 57.966 96.024 58.5C62.55 59.058 31.662 59.166 0 60C2.454 40.662 0.798 19.2 7.734 0C37.74 1.098 67.398 1.344 100.104 2.232C132.12 3.084 167.178 4.584 192 7.242V54.942Z" fill="#EF3030"/>
<path d="M53.6647 29.075C53.0397 29.575 52.0647 29.025 51.8897 28.025C51.8147 27.65 52.0397 27.275 52.5647 26.85C53.7647 25.85 55.8397 23.65 56.9147 22.25C57.3897 21.6 57.8147 21.15 58.1397 20.925C58.5147 20.7 60.0897 20 60.4647 19.9C61.3397 19.725 61.9397 20 63.1647 21.125C63.9397 21.85 64.7147 22.425 65.4897 22.875C66.3647 23.35 66.6897 23.6 67.7897 24.675C69.1647 26.05 69.3647 26.625 68.7647 27.825C68.1647 29.1 67.5897 29.125 66.9147 27.95C66.6897 27.55 66.4397 27.225 66.2147 27C65.0647 25.875 64.1897 25.1 63.5897 24.7L62.1897 23.725C61.0647 22.875 60.4147 22.45 60.2647 22.45C60.1897 22.45 59.9647 22.7 59.5647 23.175C59.1647 23.675 58.8147 24.15 58.5397 24.625C57.9397 25.625 57.2897 26.275 55.9147 27.3C55.4147 27.675 54.6647 28.25 53.6647 29.075ZM64.3147 36.95C63.3397 37.175 59.9647 37.1 58.5397 36.825C58.1647 36.75 57.8397 36.725 57.5397 36.7C57.2147 36.7 56.4647 36.725 55.2647 36.8C54.2397 36.875 53.6397 36.675 53.4147 36.225C53.2147 35.8 53.3397 35.05 53.6647 34.875C54.1397 34.65 55.5147 34.4 56.6897 34.375H57.9647C58.0897 34.375 57.9147 33.825 57.8147 33.55C57.6397 33.05 57.5897 32.525 57.7147 31.975C57.7897 31.7 57.8647 31.3 57.9647 30.75C58.1897 29.325 58.3897 28.4 58.5897 27.925C58.7897 27.475 59.1147 27.175 59.5897 27C59.8147 26.925 60.0897 26.875 60.4647 26.875C60.8897 26.875 61.1397 26.975 61.2147 27.175C61.2897 27.4 61.2647 27.95 61.1397 28.825L60.9897 30.475C60.8647 31.625 60.7647 32.55 60.6397 33.275C60.4647 34.2 60.5397 34.35 61.1647 34.35C61.4647 34.35 61.8897 34.4 62.4647 34.475C64.5647 34.7 65.4397 34.35 65.6397 33.075C65.7647 32.3 65.8897 32.25 67.0647 32.075C69.0897 31.85 69.4647 32.025 69.5397 33.3C69.5897 34.325 69.3147 34.925 68.6897 35.075C68.1897 35.2 68.0647 35.275 67.3397 35.8C66.5147 36.425 66.1647 36.6 65.3397 36.725C64.9147 36.8 64.5897 36.875 64.3147 36.95ZM86.7548 33.875C86.7298 33.875 86.7048 33.875 86.6798 33.85C86.4798 33.75 86.3548 33.6 86.3298 33.425C86.2798 33.25 86.2298 32.7 86.2048 31.775C86.1798 31.6 86.1798 31.45 86.1798 31.35C86.1548 30.8 86.1048 30.525 86.0798 30.525C86.0548 30.525 85.9548 30.55 85.7798 30.625C85.3048 30.8 83.6298 31.2 83.2048 31.275C82.2298 31.375 81.2798 30.7 81.2048 29.825C81.1798 29.525 81.2798 29.3 81.5048 29.15C81.7298 29.025 82.1548 28.9 82.8048 28.8C83.3298 28.7 84.1548 28.475 85.2798 28.125C85.6798 28 85.9048 27.925 85.9798 27.85C86.0548 27.775 86.0548 27.65 86.0048 27.425C85.9798 27.2 85.9798 26.55 86.0548 25.45L86.2048 22.25C86.2048 21.725 86.1798 21.15 86.1048 20.5C86.0298 19.775 86.0298 19.275 86.0798 19C86.1298 18.75 86.2548 18.575 86.4798 18.45C87.2798 18.05 88.4048 18.75 88.5048 19.675C88.5298 19.925 88.5298 20.075 88.5048 20.1C88.4298 20.225 88.3548 23.925 88.4298 24.6L88.5048 27.5C88.5048 28.775 88.5298 29.625 88.5548 30.075C88.5798 30.525 88.6798 30.975 88.8048 31.4C89.1298 32.5 88.8298 33.275 87.9048 33.75C87.2298 34.075 87.1548 34.075 86.7548 33.875ZM78.1548 32.925C77.4548 33.125 76.6048 32.925 76.0798 32.425C75.9548 32.3 75.8798 32.15 75.8798 31.95C75.8548 31.75 75.9048 31.375 75.9798 30.85C76.0298 30.625 76.0798 30.375 76.1048 30.075C76.1298 29.825 76.0798 29.7 75.9798 29.675C75.8548 29.65 75.4298 29.7 74.6798 29.825C74.0048 29.95 73.5298 30 73.2548 30.025C72.9548 30.05 72.7298 30.125 72.5548 30.2C71.6048 30.6 70.5548 29.575 71.2798 28.275C71.5548 27.9 71.7798 27.775 72.6798 27.75C73.1548 27.725 73.6048 27.7 73.9798 27.625C74.3298 27.55 75.0548 27.5 76.1298 27.45C78.2048 27.375 78.1548 27.375 80.4548 26.275L81.8798 25.625C82.8798 25.225 83.6798 25.525 83.6798 26.3C83.6798 26.475 83.2048 27.275 82.9298 27.475C82.0548 28.2 80.9548 28.675 79.5798 28.85C79.1548 28.925 79.1298 28.95 79.0548 29.425C79.0298 29.725 78.9548 30.025 78.8548 30.35C78.7548 30.725 78.6798 31.175 78.6548 31.7C78.6298 32.175 78.6048 32.475 78.5548 32.6C78.4798 32.75 78.3548 32.85 78.1548 32.925ZM79.8298 38.325C79.1048 38.125 78.4548 37.45 78.4548 36.875C78.4548 36.675 78.3548 36.375 78.1798 36C77.4048 34.475 77.4548 33.9 78.2798 33.2C78.6548 32.875 78.6798 32.85 79.1048 32.85C79.8048 32.85 80.0548 33.075 80.2548 33.9L80.6298 35.025C80.8298 35.5 80.9298 35.75 80.9298 35.825C80.9298 36.525 82.0798 36.5 83.9548 35.75C84.8048 35.425 85.7048 35.425 86.6798 35.75C87.1548 35.9 87.5798 35.975 87.9798 35.975C89.5548 35.975 90.4048 37.15 89.5048 38.05C89.2798 38.275 89.2798 38.3 88.8048 38.225C88.4798 38.2 88.1298 38.175 87.7798 38.2C87.4298 38.2 86.9548 38.1 86.3798 37.9C85.3548 37.525 85.2298 37.525 84.2298 38.05C83.0048 38.65 81.5548 38.75 79.8298 38.325ZM73.9798 26.225C72.1798 25.7 71.4798 24.525 71.7048 22.425C71.9048 20.4 72.4048 19.75 73.8798 19.65C74.5048 19.575 74.6298 19.55 74.9548 19.225C75.2548 18.9 75.6798 18.725 76.2298 18.675C78.7548 18.45 79.2298 20.325 79.6048 21.25C80.2798 22.95 80.4298 23.675 80.3548 24.65C80.3298 24.95 80.2548 25.175 80.1048 25.3C79.9298 25.45 79.5548 25.65 78.9798 25.925C76.6798 26.9 76.3048 26.925 73.9798 26.225ZM76.5798 24.15C76.7048 24.175 76.8548 24.15 77.0798 24.075L77.7048 23.925C77.9298 23.85 77.9798 23.75 77.8798 23.275C77.6548 22.15 77.4798 21.825 76.9048 21.625C76.1048 21.4 76.2548 20.85 75.4298 21.625C75.1048 21.9 74.7798 22.125 74.4548 22.325C73.5798 22.825 73.5298 23.425 74.3298 23.6L75.6798 23.95C76.1548 24.075 76.4548 24.15 76.5798 24.15ZM113.308 39.15C112.033 39 111.683 38.7 111.008 38.85C106.108 39.9 104.358 39.75 102.583 38.225C101.483 37.25 101.283 35.4 102.108 34.075C102.683 33.225 103.358 33.4 105.058 33.75C105.233 33.8 106.158 33.65 106.758 33.775C109.158 34.2 108.833 34.075 109.983 33.825C110.583 33.675 111.458 33.525 112.083 33.35C112.558 33.225 113.408 33.325 113.658 33.15C114.458 32.675 113.833 32.4 113.833 32.4C113.658 32.325 109.033 32.775 105.733 32.7C105.033 32.675 104.558 32.775 104.308 32.75C104.033 32.725 103.833 32.675 103.658 32.55C103.133 32.225 103.233 31.325 103.833 30.85C104.258 30.55 104.708 30.35 105.208 30.275C105.708 30.2 106.683 30.225 108.108 30.3C109.508 30.4 110.008 30.35 111.583 30.075C112.083 30.025 112.583 30 113.083 30.05C113.683 30.1 114.233 30.3 114.808 30.4C115.433 30.5 116.283 30.475 116.533 31.175C116.683 31.675 116.583 32.275 116.483 32.775C116.108 34.4 115.783 34.7 113.958 35.175L112.333 35.65C110.908 36.1 109.933 36.275 109.433 36.15C109.283 36.1 108.933 36.075 108.358 36.025C107.733 35.975 107.058 35.9 106.333 35.775C105.658 35.65 105.233 35.6 105.083 35.6C104.808 35.65 104.458 35.675 104.383 35.95C104.108 36.725 105.058 36.75 105.583 36.925C106.608 37.25 107.733 37.225 108.758 36.975C109.458 36.8 110.208 36.825 110.908 36.875L111.933 36.925C112.283 36.925 112.658 36.825 113.008 36.825C113.358 36.825 113.733 36.875 114.083 36.9L116.333 37.15C116.758 37.175 117.058 37.3 117.258 37.5C117.708 37.925 117.508 38.525 116.508 39C115.983 39.275 115.133 39.35 113.308 39.15ZM104.533 29.025C104.158 28.95 102.733 28.475 102.433 28.3C102.308 28.25 102.208 28.25 102.083 28.275C101.833 28.325 101.608 28.25 101.383 28.025C101.158 27.8 100.933 27.425 100.708 26.9C100.283 25.9 100.233 25.875 99.7083 25.475C98.8333 24.825 98.7833 24.025 99.6083 23.1C99.7333 22.925 99.8083 22.775 99.8333 22.65L99.9083 21.5C99.9333 20.625 100.008 20.075 100.083 19.825C100.158 19.6 100.358 19.4 100.683 19.225C101.308 18.9 102.008 19.075 102.333 19.65C102.408 19.825 102.458 20.225 102.458 20.85C102.458 21.475 102.408 21.925 102.333 22.15C102.158 22.525 102.183 22.55 102.658 22.35C103.733 21.85 105.558 21.475 106.933 21.475C107.158 21.475 107.283 21.475 107.308 21.45C107.333 21.425 107.358 21.375 107.358 21.275C107.358 20.975 107.208 20.65 106.883 20.275C106.333 19.7 106.858 19.025 108.158 18.6C109.458 18.175 110.058 18.95 110.258 21.375C110.283 21.725 110.333 21.95 110.358 22.05L110.708 23.15C110.908 23.775 111.033 24.3 111.108 24.725L111.283 25.825C111.358 26.375 111.308 26.875 111.108 27.325C110.708 28.15 110.558 28.25 109.183 28.25C108.358 28.25 108.258 28.275 107.358 28.5C106.333 28.775 105.683 28.925 105.358 28.975C105.033 29.05 104.758 29.05 104.533 29.025ZM115.683 29.2C115.308 29.425 114.008 28.875 114.008 28.475C114.008 28.425 113.933 28.25 113.783 27.925C113.658 27.675 113.608 27.475 113.583 27.3L113.508 26.025C113.483 25.925 113.483 25.8 113.483 25.65C113.458 24.625 113.433 24.6 113.008 24.3L112.833 24.175C112.583 24 112.458 23.775 112.458 23.525C112.458 23.275 112.583 22.825 112.858 22.15C113.233 21.25 113.283 20.85 113.283 19.775C113.258 19.1 113.258 18.7 113.283 18.575C113.308 18.45 113.333 18.3 113.408 18.125C113.508 17.925 113.658 17.775 113.833 17.7C114.533 17.375 115.333 17.625 115.633 18.25C115.958 18.925 115.808 20.525 115.308 21.95C115.033 22.625 115.058 22.675 115.433 23.3C115.833 23.975 115.933 24.3 115.858 25C115.833 25.375 115.858 25.7 115.958 26C116.258 27.025 116.083 28.9 115.683 29.2ZM103.858 26.35C104.158 26.3 104.458 26.275 104.733 26.275C105.008 26.275 105.533 26.25 106.308 26.175L108.033 26C108.733 25.925 108.683 25.975 108.758 24.95C108.783 24.475 108.783 24.2 108.758 24.1C108.733 24 108.633 23.925 108.458 23.875C108.233 23.8 107.908 23.8 107.458 23.85L106.333 23.975C104.933 24.15 104.758 24.15 103.958 24.525C103.433 24.75 103.108 24.85 102.983 24.875C102.808 24.9 102.733 24.975 102.708 25.05C102.683 25.125 102.733 25.35 102.858 25.675C103.083 26.4 103.158 26.45 103.858 26.35ZM121.809 36.125C120.609 35.8 120.509 34.025 121.609 33.4C121.909 33.225 122.209 32.8 122.509 32.175C122.834 31.5 123.459 30.875 124.384 30.3C124.859 30.025 125.334 29.65 125.834 29.225C126.659 28.5 127.534 27.875 128.484 27.375C129.659 26.775 129.709 26.7 129.884 25.7C129.959 25.175 130.034 24.825 130.109 24.625C130.234 24.15 130.209 23.875 130.009 23.8C129.809 23.725 129.284 23.775 128.459 23.95C127.584 24.125 126.884 24.175 126.359 24.1C126.134 24.075 125.909 24.1 125.684 24.175C124.959 24.4 124.184 24.375 122.784 23.9C122.309 23.775 121.959 23.675 121.734 23.65C121.034 23.55 120.809 23.3 120.834 22.625C120.909 21.6 122.384 21.175 124.109 21.7C125.284 22.025 125.434 22.05 126.109 21.75C126.434 21.6 126.784 21.5 127.109 21.425C128.059 21.25 129.309 21.4 130.859 21.85C132.759 22.45 133.509 24.75 132.434 26.95C132.284 27.275 132.184 27.525 132.109 27.75C131.834 28.675 130.809 29.625 129.684 29.95C128.809 30.225 128.159 30.625 127.684 31.1L126.709 32.1C126.359 32.45 126.109 32.75 125.959 32.975C125.809 33.225 125.509 33.575 125.059 34L124.134 34.95C123.109 36.05 122.584 36.325 121.809 36.125ZM137.234 38.175C137.034 38.25 136.434 38.025 136.159 37.8C135.534 37.275 135.409 35.425 135.909 34.5C136.184 33.95 136.209 33.275 135.984 32.475C135.659 31.45 135.609 30.425 135.784 29.375C135.884 28.675 135.834 28.325 135.509 27.45C135.434 27.3 135.409 27.2 135.409 27.125C135.409 27.05 135.434 26.925 135.484 26.725C135.859 25.4 135.909 25.2 135.834 23.325C135.809 22.35 135.784 21.725 135.734 21.4C135.684 21.075 135.584 20.75 135.409 20.375C135.084 19.675 135.209 18.95 135.734 18.75C136.159 18.575 136.934 18.8 137.409 19.225C137.659 19.45 137.859 20 138.009 20.9C138.159 21.8 138.209 22.825 138.184 24C138.159 25.125 138.159 25.875 138.234 26.25C138.434 27.425 138.359 28.375 138.009 29.15C137.834 29.55 137.734 29.825 137.734 30C137.734 30.175 137.834 30.575 138.009 31.225C138.434 32.7 138.484 33.375 138.184 34.45C138.059 34.875 138.009 35.3 138.034 35.7C138.109 36.55 138.109 37.15 137.984 37.5C137.859 37.85 137.609 38.075 137.234 38.175Z" fill="#FFFDE6"/>
</svg>
