<svg width="120" height="99" viewBox="0 0 120 99" fill="none" xmlns="http://www.w3.org/2000/svg">
<g clip-path="url(#clip0_75_669)">
<path d="M58.545 95.985C58.4625 95.895 58.35 95.82 58.2075 95.7525C58.065 95.685 57.885 95.625 57.675 95.565C57.525 95.5275 57.405 95.49 57.315 95.4525C57.2175 95.415 57.15 95.3775 57.0975 95.34C57.0525 95.3025 57.0225 95.265 57 95.2125C56.9775 95.16 56.9625 95.1075 56.955 95.055C56.955 94.9875 56.97 94.935 56.9925 94.8825C57.015 94.83 57.06 94.785 57.105 94.755C57.1575 94.7175 57.2175 94.695 57.2925 94.68C57.3675 94.665 57.45 94.6575 57.54 94.6575C57.6225 94.6575 57.7125 94.6725 57.81 94.71C57.9075 94.7475 58.005 94.7925 58.1025 94.8525C58.2 94.9125 58.29 94.9875 58.3725 95.07L58.755 94.65C58.665 94.5375 58.5525 94.44 58.4175 94.3575C58.2825 94.275 58.14 94.215 57.9825 94.17C57.825 94.125 57.6675 94.1025 57.5025 94.1025C57.33 94.1025 57.1725 94.125 57.0225 94.1775C56.8725 94.2225 56.745 94.29 56.6325 94.38C56.52 94.47 56.4376 94.575 56.3701 94.695C56.3101 94.815 56.2725 94.9425 56.2725 95.085C56.2725 95.205 56.2875 95.31 56.3175 95.4075C56.3475 95.505 56.3925 95.595 56.46 95.6775C56.55 95.7825 56.67 95.8725 56.8275 95.955C56.985 96.0375 57.195 96.1125 57.4425 96.1725C57.5925 96.21 57.7125 96.2475 57.8025 96.285C57.8925 96.3225 57.96 96.3525 58.005 96.3825C58.0875 96.45 58.125 96.54 58.125 96.6525C58.125 96.72 58.11 96.78 58.0875 96.8325C58.065 96.885 58.02 96.93 57.975 96.975C57.9225 97.0125 57.87 97.0425 57.8025 97.065C57.735 97.0875 57.66 97.095 57.585 97.095C57.39 97.095 57.2175 97.065 57.06 96.9975C56.91 96.93 56.7675 96.8175 56.6325 96.6675L56.175 97.0575C56.325 97.2525 56.5201 97.4025 56.7451 97.5C56.9775 97.5975 57.2325 97.65 57.5175 97.65C57.75 97.65 57.9525 97.605 58.14 97.5225C58.3275 97.4325 58.4775 97.3125 58.5825 97.1625C58.695 97.0125 58.7475 96.8325 58.7475 96.6375C58.7475 96.5025 58.7325 96.3825 58.695 96.2775C58.6575 96.1725 58.5975 96.075 58.515 95.9925L58.545 95.985Z" fill="#EF3030"/>
<path d="M64.6126 94.5675C64.4701 94.4175 64.3051 94.305 64.1176 94.2225C63.9301 94.14 63.7201 94.095 63.5026 94.095C63.2551 94.095 63.0151 94.14 62.8051 94.23C62.5876 94.32 62.4076 94.4475 62.2501 94.605C62.1001 94.77 61.9726 94.9575 61.8901 95.1825C61.8001 95.4 61.7626 95.6475 61.7626 95.9175C61.7626 96.255 61.8376 96.555 61.9951 96.81C62.1451 97.0725 62.3626 97.275 62.6326 97.425C62.9026 97.575 63.2101 97.65 63.5626 97.65C63.7201 97.65 63.8851 97.6275 64.0501 97.5825C64.2151 97.5375 64.3726 97.4775 64.5226 97.395C64.6726 97.32 64.8001 97.2225 64.9051 97.125L64.5676 96.6525C64.3951 96.8025 64.2451 96.9 64.0951 96.96C63.9526 97.02 63.7951 97.0425 63.6226 97.0425C63.3826 97.0425 63.1726 96.9975 62.9926 96.9C62.8126 96.8025 62.6701 96.6675 62.5726 96.495C62.4976 96.36 62.4526 96.21 62.4301 96.045H65.0401V95.76C65.0476 95.52 65.0176 95.3025 64.9426 95.1C64.8676 94.8975 64.7551 94.725 64.6201 94.575L64.6126 94.5675ZM62.9101 94.845C63.0676 94.755 63.2701 94.71 63.5026 94.71C63.6526 94.71 63.7876 94.74 63.9151 94.8075C64.0426 94.875 64.1476 94.9575 64.2301 95.0775C64.3126 95.19 64.3576 95.3175 64.3726 95.46V95.505H62.4676C62.4901 95.4075 62.5201 95.3175 62.5576 95.235C62.6401 95.0625 62.7601 94.935 62.9176 94.845H62.9101Z" fill="#EF3030"/>
<path d="M71.4825 96.825C71.2725 96.825 71.0925 96.99 71.085 97.2C71.085 97.41 71.25 97.59 71.46 97.5975C71.67 97.5975 71.85 97.4325 71.8575 97.2225C71.865 97.0125 71.6925 96.8325 71.4825 96.825Z" fill="#EF3030"/>
<path d="M61.335 96.915C61.2 96.99 61.0425 97.0275 60.8925 97.02C60.75 97.02 60.5775 96.9675 60.495 96.84C60.4125 96.72 60.4275 96.5625 60.4275 96.4275C60.4275 96.3375 60.4275 96.255 60.4275 96.165C60.4275 96.09 60.4275 96.015 60.4275 95.94V94.7925H61.425V94.1625H60.4275V93.2925H59.7825V94.1625H59.085V94.7925H59.7825V95.94V96.705C59.7825 97.3125 60.2025 97.635 60.8475 97.635C61.08 97.635 61.26 97.59 61.425 97.5C61.425 97.4175 61.425 97.3425 61.425 97.26C61.425 97.1175 61.425 96.975 61.425 96.8325C61.425 96.8475 61.365 96.8775 61.335 96.9V96.915Z" fill="#EF3030"/>
<path d="M70.2151 94.4699C70.1776 94.7249 70.1326 94.9574 70.0651 95.2799C70.0426 95.3924 70.0126 95.5049 69.9901 95.6174C69.7801 96.6374 69.6451 97.0574 69.2176 97.0574C69.0526 97.0574 68.8876 97.0049 68.7301 96.8924C68.6401 96.8324 68.5576 96.7499 68.4826 96.6524C68.7151 96.2174 68.8351 95.7899 68.8351 95.3699V95.3174C68.8351 95.0099 68.8351 94.5449 68.5726 94.2749C68.4526 94.1549 68.2951 94.0874 68.1151 94.0874C67.9351 94.0874 67.7776 94.1549 67.6576 94.2749C67.3876 94.5449 67.3876 95.0099 67.3951 95.3174V95.3699C67.3951 95.7899 67.5151 96.2174 67.7476 96.6524C67.6726 96.7499 67.5901 96.8249 67.5001 96.8924C67.3501 97.0049 67.1851 97.0574 67.0126 97.0574C66.5776 97.0574 66.4501 96.6374 66.2401 95.6174C66.2176 95.5049 66.1951 95.3924 66.1651 95.2799C66.0976 94.9574 66.0526 94.7174 66.0151 94.4699C66.0001 94.3799 65.9851 94.2824 65.9626 94.1774H65.3701C65.3926 94.3199 65.4151 94.4474 65.4376 94.5674C65.4826 94.8299 65.5201 95.0774 65.5951 95.4074C65.6176 95.5199 65.6401 95.6324 65.6626 95.7374C65.8651 96.7199 66.0601 97.6424 67.0126 97.6424C67.2976 97.6424 67.5826 97.5449 67.8376 97.3724C67.9351 97.3049 68.0326 97.2224 68.1151 97.1249C68.1976 97.2149 68.2951 97.2974 68.3926 97.3724C68.6401 97.5524 68.9251 97.6424 69.2176 97.6424C70.1701 97.6424 70.365 96.7199 70.5675 95.7374C70.59 95.6249 70.6126 95.5199 70.6351 95.4074C70.7101 95.0699 70.7476 94.8224 70.7926 94.5674C70.8151 94.4474 70.8301 94.3199 70.8601 94.1774H70.2676C70.2526 94.2824 70.2376 94.3799 70.2151 94.4699ZM68.2501 95.3774C68.2501 95.6099 68.1976 95.8424 68.1151 96.0674C68.0326 95.8499 67.9801 95.6174 67.9801 95.3774C67.9801 95.1974 67.9801 95.0099 68.0176 94.8374C68.0251 94.7924 68.0401 94.7324 68.0776 94.7024C68.0776 94.7024 68.0926 94.6874 68.1226 94.6874C68.1526 94.6874 68.1601 94.6874 68.1676 94.7024C68.2051 94.7399 68.2201 94.7924 68.2276 94.8374C68.2651 95.0099 68.265 95.1974 68.265 95.3774H68.2501Z" fill="#EF3030"/>
<path d="M71.9851 93.3149L71.3926 96.3149H71.4976H71.9551L72.5476 93.3299L71.9851 93.3149Z" fill="#EF3030"/>
<path d="M50.4975 95.025C50.3625 94.77 50.1825 94.5675 49.95 94.4175C49.725 94.275 49.455 94.2 49.1625 94.2C49.0275 94.2 48.9 94.2225 48.765 94.2675C48.6375 94.3125 48.5175 94.3725 48.405 94.44C48.2925 94.515 48.2025 94.5975 48.135 94.6875L48.0975 94.74V92.925H47.4525V97.5375H48.0975V97.1176C48.1725 97.2076 48.2625 97.2901 48.375 97.3651C48.4875 97.4401 48.615 97.5001 48.7575 97.5526C48.9 97.5976 49.035 97.62 49.1775 97.62C49.47 97.62 49.725 97.545 49.9575 97.395C50.1825 97.2525 50.3625 97.0425 50.4975 96.7875C50.6325 96.525 50.6925 96.2325 50.6925 95.9025C50.6925 95.5725 50.625 95.28 50.49 95.0175L50.4975 95.025ZM49.95 96.4875C49.86 96.6525 49.7475 96.795 49.59 96.885C49.44 96.9825 49.2675 97.035 49.08 97.035C48.8925 97.035 48.705 96.9825 48.555 96.885C48.405 96.7875 48.2925 96.6525 48.2025 96.4875C48.12 96.315 48.0675 96.12 48.0675 95.91C48.0675 95.7 48.1125 95.505 48.2025 95.3325C48.2925 95.1675 48.405 95.0325 48.555 94.935C48.705 94.8375 48.8775 94.7925 49.08 94.7925C49.2825 94.7925 49.4475 94.8375 49.5975 94.935C49.7475 95.0325 49.86 95.1675 49.95 95.3325C50.0325 95.505 50.0775 95.6925 50.0775 95.91C50.0775 96.1275 50.0325 96.315 49.95 96.4875Z" fill="#EF3030"/>
<path d="M54.4275 94.2751L53.07 97.5601L52.515 99.0001H51.8175L52.3725 97.7176L50.85 94.2751H51.6L52.6275 96.6901C52.65 96.7351 52.6725 96.7951 52.7025 96.8851C52.7025 96.8926 52.7025 96.9001 52.71 96.9076C52.7475 96.8251 52.7775 96.7351 52.8 96.6451L53.6625 94.2676H54.4275V94.2751Z" fill="#EF3030"/>
<path d="M117.247 66.0901C115.215 68.8351 112.11 69.5326 108.315 69.3151C108.255 69.3076 108.195 69.3001 108.135 69.2926C106.627 71.9176 104.475 73.7476 101.94 73.9726C96.45 73.9201 94.425 67.1026 95.2125 53.9476C95.7 44.9401 96.8025 39.0226 98.64 36.0526C98.28 33.3976 97.8375 30.8176 97.29 28.5076C94.4925 17.3701 84.285 10.0576 67.77 7.41012C54.8325 5.49012 36.735 3.97512 29.265 13.0801C25.8675 17.1601 23.8725 25.5226 22.71 34.3576C23.175 34.9201 23.5725 35.6926 23.8875 36.7276C24.975 40.0576 25.23 46.4026 24.81 53.7526C24.3975 61.1176 23.55 65.7301 22.29 69.2626C21.0225 72.6526 19.35 74.9551 17.1 74.4226C15.0075 73.9951 13.29 71.8501 11.97 69.2176C11.9175 69.2251 11.8575 69.2326 11.805 69.2401C8.54249 69.4126 5.83499 68.8201 3.79499 66.0301C1.76249 63.4051 0.404992 58.5826 0.0674921 54.0001C-0.262508 49.5601 0.674992 47.4901 2.71499 44.9701C4.74749 42.6526 7.87499 39.8851 11.6925 38.6551C11.7525 38.6326 11.8125 38.6101 11.88 38.5876C13.125 35.7826 14.8125 34.2451 16.7925 33.5251C18.3375 21.8251 20.97 13.6876 24.6525 9.27012C34.035 -2.16738 54.27 -0.644883 68.67 1.50012C92.7825 5.36262 100.687 17.5426 103.08 27.0751C103.582 29.1751 104.017 31.5601 104.4 34.2151C105.832 34.8151 107.055 36.1726 108.045 38.5651C108.105 38.5726 108.157 38.5876 108.217 38.6026C111.502 39.2701 114.232 41.4601 116.272 43.8226C118.305 46.3276 119.647 49.0126 119.94 53.8501C120.24 58.7851 119.28 63.4576 117.24 66.0901H117.247Z" fill="#EF3030"/>
<path d="M68.7825 42.6001C67.305 43.1926 66.015 43.4626 64.9125 43.4176C63.2325 43.3426 61.7925 43.0051 60.6 42.4126C59.325 41.7901 58.5525 40.7026 58.29 39.1501C58.0275 37.5826 58.0425 35.9476 58.335 34.2526C58.5525 33.0076 59.2275 31.9126 60.3675 30.9601C61.6125 29.9176 63.0525 29.4151 64.68 29.4451C66 29.4751 66.9975 29.8576 67.665 30.5851V30.2551C67.635 29.7076 67.6875 29.3701 67.815 29.2276C68.055 28.9726 69.24 28.8301 69.96 28.8301C70.9575 28.8301 72.0225 28.9726 72.9375 29.0401C73.635 29.1001 73.845 29.2801 73.845 30.0226C73.8675 33.6226 73.9575 34.7101 73.7175 37.1251C73.5975 38.3626 73.5675 38.1301 73.5675 39.0976C73.5675 40.1701 73.38 40.9576 73.1925 41.8276C73.035 42.5401 72.6675 42.8326 71.91 42.9226C70.71 43.0351 69.885 43.0876 69.435 43.0876C69.195 43.0876 68.94 42.7201 68.7825 42.6001ZM63.465 38.0926C64.0275 38.7376 64.605 39.0826 65.685 38.7226C66.06 38.5876 66.3075 38.4001 66.465 38.0326C66.645 37.6276 67.14 36.7501 66.78 36.0376C66.6225 35.7301 66.3675 35.3926 66.0075 35.0326C65.535 34.5601 64.6125 34.6951 63.99 35.0326C63.045 35.5501 62.61 37.1026 63.465 38.0926Z" fill="#EF3030"/>
<path d="M79.6575 37.3277C79.6575 37.0652 79.0875 36.0152 77.94 34.1777C76.08 31.1852 76.29 31.4027 75.3375 28.9502C75.93 28.9052 76.2375 28.8827 76.2675 28.8827C76.875 28.8827 79.6725 28.8077 80.3025 28.7927C80.6775 28.7777 80.9325 28.9427 81.075 29.2802C81.63 30.6902 82.62 33.0677 83.13 34.4102C83.91 33.5852 84.5325 32.6252 84.9975 31.5152C85.14 31.1852 85.4925 30.3152 86.07 28.9052C86.2125 28.5602 86.46 28.4027 86.82 28.4177C87.5475 28.4477 88.7475 28.4777 90.4125 28.5077C90.8475 28.5077 91.1175 28.7477 90.9 29.2052C89.4525 32.4827 89.04 33.2927 87.2625 35.9252C86.9175 36.4202 86.715 37.0427 86.655 37.7927C86.5875 38.2052 86.3475 41.1002 86.3025 41.5502C86.28 41.9177 86.2575 43.3652 86.2575 43.7402C86.2575 43.7552 86.235 43.9352 86.19 44.2802C82.5825 44.2652 80.505 44.2577 79.9575 44.2577C79.3275 44.2577 79.185 44.1377 79.2825 43.4852C79.6125 41.4302 79.7175 39.5777 79.6125 37.9352C79.6125 37.8152 79.6575 37.4477 79.6575 37.3277Z" fill="#EF3030"/>
<path d="M33.42 56.6475C33.42 56.385 32.85 55.335 31.7025 53.4975C29.8425 50.505 30.0525 50.7225 29.1 48.27C29.6925 48.225 30 48.2025 30.03 48.2025C30.6375 48.2025 33.435 48.1275 34.065 48.1125C34.44 48.0975 34.695 48.2626 34.8375 48.6001C35.3925 50.0101 36.3825 52.3875 36.8925 53.73C37.6725 52.905 38.295 51.945 38.76 50.835C38.9025 50.505 39.255 49.6351 39.8325 48.2251C39.975 47.8801 40.2225 47.7225 40.5825 47.7375C41.31 47.7675 42.51 47.7975 44.175 47.8275C44.61 47.8275 44.88 48.0675 44.6625 48.525C43.215 51.8025 42.8025 52.6126 41.025 55.245C40.68 55.74 40.4775 56.3625 40.4175 57.1125C40.35 57.525 40.11 60.42 40.065 60.87C40.0425 61.2375 40.02 62.685 40.02 63.06C40.02 63.075 39.9975 63.255 39.9525 63.6C36.345 63.585 34.2675 63.5775 33.72 63.5775C33.09 63.5775 32.9475 63.4575 33.045 62.805C33.375 60.75 33.48 58.8975 33.375 57.255C33.375 57.135 33.42 56.7675 33.42 56.6475Z" fill="#EF3030"/>
<path d="M56.1225 62.7527C55.4925 63.2402 54.75 63.5327 53.895 63.6302C53.5425 63.6602 52.095 64.0727 51.675 64.0502C50.415 64.0052 49.4025 63.8177 48.645 63.4877C47.475 62.9927 46.47 62.3477 45.615 61.5527C44.0475 60.1352 43.5675 58.0952 44.19 55.4177C45.105 51.3902 46.485 49.0802 49.7625 47.2502C50.01 47.1077 50.355 47.0852 50.79 47.1827C51.3375 47.3027 53.2425 47.8127 53.775 47.9327C56.1975 48.5177 58.1325 50.2727 58.92 52.5602C59.2575 53.5352 59.415 54.7427 59.4 56.1902C59.4 59.1527 57.81 61.4402 56.1225 62.7602V62.7527ZM51.375 57.2927C51.5775 57.4727 51.825 57.5552 52.125 57.5402C52.545 57.5252 52.7775 57.2027 52.8225 56.5802C52.8525 55.9877 52.665 55.6652 52.26 55.5977C51.48 55.4627 50.6475 56.6477 51.375 57.2927Z" fill="#EF3030"/>
<path d="M80.1225 50.8427C80.1225 50.8427 80.1 50.6477 80.055 50.3552C81.54 50.1677 82.83 50.0327 83.4825 49.8902C83.8725 49.8002 84.09 49.9352 84.135 50.3102C84.15 50.5427 84.225 51.3002 84.3675 52.5752C84.3675 52.5902 84.3825 52.7927 84.4125 53.1827C85.485 52.4552 86.055 52.0727 86.115 52.0427C87.1275 51.4352 88.305 51.2327 89.6625 51.4352C89.91 51.4727 91.2525 51.6077 91.2525 51.9377C91.2525 52.0502 91.305 52.6127 91.32 52.7177C91.395 53.4302 91.3575 54.4277 91.2 55.7027C91.1625 55.9877 90.75 56.3477 90.5025 56.4527C89.955 56.6777 89.0625 56.8802 88.4475 57.0377C86.985 57.4427 86.04 58.1702 85.905 59.8127C85.845 60.6677 85.8075 61.5377 85.785 62.4227C85.785 62.8127 85.59 63.0077 85.2 63.0077C84 62.9777 83.04 62.9627 82.305 62.9627C81.9975 62.9627 80.865 63.0077 80.5575 63.0077C80.0775 63.0077 79.9725 62.8202 79.9725 62.3327C80.01 61.2227 79.905 60.1877 79.905 59.1152C79.86 57.4502 79.8375 56.2502 79.8375 55.5227C79.8375 54.3377 80.025 52.1627 80.115 50.8577L80.1225 50.8427Z" fill="#EF3030"/>
<path fill-rule="evenodd" clip-rule="evenodd" d="M59.9625 68.4603C59.8725 68.5728 59.6175 68.9478 59.355 69.1728C59.235 69.2928 59.1 69.4203 58.95 69.5553C58.845 69.6378 58.755 69.7503 58.6275 69.8553C58.4775 69.9828 58.23 70.0578 58.2975 70.3128C58.3425 70.4703 58.3875 70.6203 58.425 70.7628C58.4775 71.0253 58.5675 71.5503 58.6125 71.6853C58.65 71.7903 58.725 72.1278 58.6125 72.1803C58.5075 72.2478 58.3875 72.2103 58.305 72.1803C58.2 72.1353 58.17 72.1578 58.0425 72.1128C57.9 72.0678 57.7575 72.0228 57.6075 71.9703C57.465 71.9253 57.375 71.8728 57.1425 71.8128C57.0075 71.7753 56.955 71.7378 56.82 71.6853C56.3925 71.5053 56.3775 71.3853 55.9275 71.6628C55.695 71.7828 55.485 71.8953 55.2825 71.9853C55.2075 72.0153 55.2075 72.0078 55.1325 72.0453C55.035 72.0828 54.945 72.1203 54.855 72.1503C54.675 72.2103 54.5175 72.3003 54.3525 72.3453C54.24 72.3753 54.105 72.3978 53.9625 72.4128C53.88 72.4128 53.91 72.4053 53.8425 72.4278C53.6925 72.3528 53.8125 71.9553 53.8425 71.7978C53.8575 71.6928 53.88 71.5878 53.9025 71.4753C53.91 71.4378 53.9025 71.4753 53.91 71.4303C53.91 71.4303 53.91 71.4078 53.91 71.4003C53.9325 71.3103 53.9625 71.2128 53.985 71.1078C54.03 70.9578 54.0375 70.7778 54.09 70.6053C54.135 70.4478 54.165 70.4253 54.18 70.2528C53.955 70.0278 53.67 69.8853 53.475 69.6678C53.07 69.2328 52.71 68.8653 52.575 68.4828C52.5375 68.3778 52.5 68.2803 52.47 68.1978C52.44 68.1153 52.4325 68.0253 52.44 67.9128C52.485 67.8378 52.515 67.8453 52.59 67.8378C52.7925 67.8378 53.1375 67.7403 53.55 67.7628C53.61 67.7628 53.6775 67.7628 53.7375 67.7628C53.88 67.7403 53.9775 67.7928 54.1275 67.7628C54.3 67.7178 54.555 67.7628 54.7725 67.7628C54.8475 67.7628 54.81 67.7628 54.8775 67.7553C54.8775 67.7553 54.93 67.7403 54.945 67.7403C54.96 67.7403 54.975 67.7403 54.99 67.7328C55.005 67.6653 54.99 67.6428 55.02 67.5828C55.05 67.5078 55.05 67.5303 55.0875 67.4553C55.1475 67.2903 55.2075 67.1253 55.26 66.9753C55.3425 66.8028 55.4025 66.7353 55.5 66.5628C55.56 66.4578 55.635 66.3453 55.6875 66.2478C55.74 66.1578 55.8525 66.0153 55.89 65.9478C56.1 65.6403 56.295 65.4228 56.445 65.3253C56.505 65.3103 56.595 65.3253 56.6475 65.3328C56.6775 65.3328 56.7825 65.4678 56.865 65.6253C57.0075 65.8803 57.06 66.0003 57.165 66.2628C57.2925 66.5928 57.42 66.9828 57.54 67.3953C57.5475 67.4178 57.555 67.4403 57.5625 67.4553C57.615 67.6203 57.6075 67.7028 57.765 67.8603C57.9 67.7853 58.8075 67.9278 58.9875 67.9428C59.115 67.9653 59.2275 67.9803 59.34 68.0028C59.4075 68.0178 59.4225 67.9953 59.475 68.0028C59.5575 68.0103 59.6325 68.0628 59.7 68.0703C59.895 68.0853 59.7825 68.0928 59.8725 68.1153C59.9175 68.1303 59.97 68.1078 59.9925 68.2053C60.015 68.3028 59.9925 68.4153 59.955 68.4603H59.9625Z" fill="#EF3030"/>
<path d="M57.8025 73.8676C58.6575 74.1451 59.085 74.7076 59.085 75.5476C59.1 79.1701 59.1 82.1251 59.085 84.4126C59.055 85.8151 58.755 86.0026 57.45 86.1826C57.1275 86.2351 55.8825 86.4826 55.515 86.5126C54.99 86.6026 54.36 85.7851 54.15 85.4626C53.6475 84.6751 53.5725 83.6926 53.535 82.4776C53.52 82.3726 53.5125 82.2826 53.5125 82.2226C53.4825 81.3376 53.4375 79.4476 53.37 76.5526V73.8676C54.7875 73.3726 56.265 73.3726 57.8025 73.8676Z" fill="#EF3030"/>
<path d="M72.7125 71.0702C73.1175 71.0702 73.2525 71.1977 73.365 71.5127C73.7775 72.5777 73.4175 74.1377 72.855 74.7527C72.7125 74.9102 72.5625 74.9927 72.39 75.0077C71.985 75.0377 71.385 75.0527 70.59 75.0527C69.96 75.0527 68.3625 74.4752 68.0925 75.1727C67.86 75.7502 67.935 76.1702 68.325 76.4327C69.0075 76.9202 70.08 77.6927 70.8225 78.0902C72.5475 78.9452 73.335 80.1902 73.1775 81.8252C73.1175 82.5377 72.975 83.2502 72.7575 83.9477C72.18 85.8302 70.7175 86.7452 68.37 86.7002H67.905V86.6327C67.2675 86.7002 63.69 86.9402 63.0525 87.0077C63.0225 87.0077 62.94 87.0302 62.91 87.0302C61.5675 87.0302 61.2375 86.7602 61.11 85.4927C61.11 85.4027 61.02 84.9602 61.02 84.8852C60.69 82.7777 62.76 82.9052 64.9275 82.8302C65.82 82.8002 66.435 82.7702 66.7575 82.7402C67.29 82.6727 67.8675 82.4102 67.68 81.8402C67.485 81.2477 66.7125 80.7827 66.225 80.4527C65.505 79.9727 64.68 79.5602 63.8925 79.1702C62.355 78.3752 61.53 77.1377 61.4175 75.4577C61.2375 72.7202 62.9775 71.6477 65.3625 71.0027C66 70.8302 66.855 70.7552 67.9275 70.7702C69.4725 70.7702 71.22 71.0702 72.7125 71.0702Z" fill="#EF3030"/>
<path d="M75.435 69.4802C75.435 69.4052 75.375 68.4452 75.2475 66.6077V66.3527C77.55 65.9477 79.8 65.9402 81.99 66.3302V76.1252L82.155 76.1702C82.62 75.8627 82.8675 75.6977 82.905 75.6827C84.93 74.4677 86.8725 74.2877 88.74 75.1427C89.8125 75.6227 90.63 76.5152 91.1925 77.8052C91.9575 79.5602 92.37 81.4952 92.43 83.5877V83.7752C92.43 84.2102 92.385 84.5852 92.07 84.7052C91.95 84.7502 91.8 84.7802 91.6125 84.7952C91.2675 84.7952 90.2475 84.8927 88.53 85.0952C88.3725 85.1102 87.555 85.2227 86.0775 85.4252C86.0175 84.2402 85.98 83.6102 85.9575 83.5352C85.8375 82.5677 84.9225 81.4352 83.8125 81.5252C83.055 81.5927 82.8825 81.7052 82.6725 82.3427C82.44 83.1527 82.41 84.1577 82.5825 85.3502C82.5975 85.3802 82.62 85.6427 82.65 86.1452C79.5075 86.0177 77.6325 85.9427 77.025 85.9127C76.2525 85.8677 75.9825 85.8902 75.7275 85.5152C75.645 85.3877 75.6 85.2827 75.6 85.1852C75.585 84.7352 75.5475 82.2827 75.48 77.8352C75.48 77.1602 75.39 73.5977 75.39 72.8627C75.39 72.2477 75.435 70.0877 75.435 69.4577V69.4802Z" fill="#EF3030"/>
<path d="M56.085 31.0426C56.055 30.8701 56.025 30.7051 55.9875 30.5401V30.5251C55.53 28.6801 54.3225 26.5276 52.4025 26.5276C50.4825 26.5276 49.6725 29.2276 49.6725 31.7551V40.6651C49.6725 43.3276 50.79 44.7901 52.815 44.7901C54.5925 44.7901 55.7775 43.7626 56.0775 41.9551C56.9925 35.8351 56.49 33.1801 56.0775 31.0426H56.085ZM54.4725 41.7226C54.345 42.6751 53.7525 43.1776 52.755 43.1776C52.3575 43.1776 52.065 43.0726 51.855 42.8551C51.345 42.3376 51.36 41.2426 51.3675 40.3651C51.3675 40.2376 51.3675 40.1176 51.3675 39.9976V32.4301C51.3675 30.3151 51.735 28.0651 52.425 28.0651C53.3625 28.0651 54.24 29.9701 54.465 31.0201C55.215 35.2876 55.14 35.8951 54.465 41.7226H54.4725Z" fill="#EF3030"/>
<path d="M76.9875 52.7628C76.4175 50.9928 75.615 49.8228 73.59 49.8228C72.3525 49.8228 71.34 50.6928 70.6575 52.3503C70.5825 52.4928 70.4025 52.9503 70.0875 53.7828C69.99 54.0303 69.915 54.2178 69.8925 54.2778L69.87 54.3378C69.6975 54.7803 69.2925 55.8153 68.82 55.8153C68.61 55.8153 68.415 55.3953 68.34 54.7728L68.0325 52.2453C67.8825 51.0303 67.05 50.2053 65.9625 50.2053C64.6275 50.2053 63.9975 50.5353 63.225 51.1803C62.085 52.1478 61.5075 53.7303 61.5075 55.8828C61.5075 59.9478 64.4025 62.6778 68.7075 62.6778C70.35 62.6778 72.135 61.8378 72.825 61.4778C73.0875 61.3428 73.2675 61.4553 73.5075 61.7178C73.5525 61.7628 73.59 61.8078 73.605 61.8153C74.1825 62.3478 75.06 62.5953 75.9525 62.4828C77.805 62.2653 78.1575 61.0878 78.255 59.9553C78.4425 57.7203 77.6775 54.8103 77.0025 52.7553L76.9875 52.7628ZM72.0825 60.1578C71.28 60.5628 69.945 61.2303 68.8425 61.2303C65.37 61.2303 63.0375 59.0778 63.0375 55.8828C63.0375 54.7728 63.2775 53.7228 63.7125 52.9128C64.29 52.1328 65.0025 51.7578 65.8875 51.7578C66.1275 51.7578 66.4275 51.8553 66.54 52.5753L66.8025 54.9678C66.9525 56.1078 67.56 57.4353 68.775 57.4353C70.0725 57.4353 70.755 56.2128 71.205 55.1403L72.1575 52.8303C72.5625 51.9153 73.0425 51.4728 73.6425 51.4728C74.7675 51.4728 75.2925 52.0953 75.8025 54.0528C76.485 56.7528 76.7925 58.6728 76.725 59.7603C76.65 60.3753 76.41 61.0878 75.615 61.0053C74.805 60.9378 74.505 60.5553 74.3175 60.3078C73.635 59.4003 72.7725 59.8278 72.0825 60.1728V60.1578Z" fill="#EF3030"/>
<path d="M49.77 73.5002C49.275 72.9077 48.75 72.6152 48.225 72.6152C47.0025 72.6152 46.305 73.9952 46.125 74.4077L44.1975 78.5177C44.055 78.8027 43.755 79.3502 43.5525 79.6502C43.485 79.4852 43.4175 79.2377 43.3875 79.1327C43.365 79.0502 43.3425 78.9827 43.3275 78.9452L42.6375 74.8502C42.495 74.0552 42.0075 73.5602 41.3625 73.5602C40.7175 73.5602 40.14 74.1077 39.5925 75.1952L37.5075 79.2452C37.47 79.3127 37.4025 79.4102 37.3575 79.4852C37.3125 79.5602 37.2675 79.6352 37.2375 79.6727C37.095 79.4702 36.885 79.0277 36.825 78.8252L35.55 74.8352C35.0775 73.3352 33.915 72.3677 32.5875 72.3677C30.9975 72.3677 30.015 73.3052 29.4675 74.0852C28.815 75.0152 28.4325 76.2752 28.4325 77.4602C28.4325 79.3577 28.4325 81.9602 31.515 84.5327C33.0975 86.0477 34.98 86.8802 36.825 86.8802C38.145 86.8802 39.3375 86.4752 40.02 85.8077C40.455 85.4102 40.8675 85.1927 41.205 85.1927C41.31 85.2077 42.0975 85.6202 43.9275 86.6102C44.6025 86.9627 45.33 87.1202 46.2075 87.1202C46.9575 87.1202 47.7825 86.9702 48.6675 86.6777C50.925 85.8452 52.0275 83.9627 52.0275 80.9402C52.0275 78.5402 51.7575 75.7727 49.785 73.4927L49.77 73.5002ZM46.1925 85.3802C45.1875 85.3802 44.28 84.8477 43.395 84.3377C43.215 84.2327 43.0275 84.1277 42.8475 84.0227C42.315 83.7302 41.745 83.4452 41.0175 83.4452C40.29 83.4452 39.8025 83.8202 39.3225 84.1802C39.2475 84.2327 39.1725 84.2927 39.105 84.3452C38.3475 84.8477 37.65 85.0877 36.9 85.0877C34.95 85.0877 33.645 84.1202 32.52 83.0702C30.9825 81.7052 30.4575 80.8352 30.285 79.3427C30.165 78.3377 29.9925 75.8627 31.0425 74.6852C31.41 74.2652 31.8975 74.0627 32.5125 74.0627C33.1725 74.0627 33.6375 74.7152 33.8475 75.3227L35.1525 79.3427C35.595 80.7827 36.3225 81.5702 37.2075 81.5702C37.8375 81.5702 38.4675 81.1427 38.85 80.4452L39.345 79.4927C40.32 77.6252 40.8225 76.6502 41.1 76.1402L41.625 79.3652C41.7525 80.0252 42.18 81.5627 43.4475 81.5627C44.4825 81.5627 45.09 80.6252 45.4575 79.9202L47.7075 75.1727C47.805 74.9102 48.0525 74.5127 48.18 74.3927C48.5325 74.7302 48.8325 75.0827 49.08 75.4652C50.0775 77.0402 50.2125 78.9977 50.2125 80.7002V81.8327C50.0475 84.1202 48.6225 85.3802 46.2 85.3802H46.1925Z" fill="#EF3030"/>
<path d="M33.555 23.2576C36.7875 23.1301 38.91 23.0851 39.9225 23.1151C41.82 23.1751 43.425 23.5951 44.73 24.3751C45.075 24.5851 45.54 25.0726 45.765 25.3651C45.8925 25.5301 46.455 26.4226 46.545 26.6101C47.9475 28.7026 48.3825 30.8776 47.0925 32.9701C46.62 33.7426 46.0425 34.2601 45.3525 34.5226C43.3275 35.3476 41.43 35.8726 39.66 36.1126C39.15 36.1726 38.9625 36.4201 39.03 36.9976C39.12 38.1376 39.45 42.3376 39.54 43.5076C39.6 44.1301 39.3375 44.2726 38.7675 44.3026C37.5525 44.3176 36.5025 44.3101 35.6175 44.2801C34.995 44.2651 33.2625 44.1976 30.4125 44.0701C30.24 43.8976 30.555 43.2451 30.555 42.9751C30.795 38.4751 30.7725 37.9126 30.87 32.7301C30.945 28.9351 31.065 26.3476 31.065 23.8426C31.0725 23.8426 33.2475 23.2576 33.54 23.2576H33.555ZM39.09 31.3651C39.8325 31.1326 41.37 30.3751 41.2725 29.7526C41.2875 29.2951 39.6975 28.8526 39.03 28.4251C38.625 28.1701 37.5825 27.6976 36.9225 27.7051C36.675 27.7051 36.6825 28.4701 36.6375 28.9276C36.6225 29.0851 36.615 30.0526 36.615 31.1026C36.615 31.5076 36.7275 31.8676 36.93 31.8751C37.2675 31.8826 38.355 31.5976 39.09 31.3726V31.3651Z" fill="#EF3030"/>
</g>
<defs>
<clipPath id="clip0_75_669">
<rect width="120" height="99" fill="white"/>
</clipPath>
</defs>
</svg>
