<?xml version="1.0" encoding="UTF-8"?>
<svg id="music2" xmlns="http://www.w3.org/2000/svg" version="1.1" viewBox="0 0 1280 1600">
  <!-- Generator: Adobe Illustrator 29.0.0, SVG Export Plug-In . SVG Version: 2.1.0 Build 186)  -->
  <defs>
    <style>
      .st0 {
        fill: #ef3030;
      }
    </style>
  </defs>
  <path class="st0" d="M1279.1,541.19c-17.31,126.81-125,188.04-125.93,167.97-3.97-77.58-112.08-151.62-215.61-202.17-130.71-63.86-305.71-189.16-311.21-208.63l-143.43,889.79s57.52,76.77,28.71,203.58c-28.71,126.91-160.95,232.03-287.39,203.58C97.81,1566.86,5.79,1509.86.09,1333.22c-5.81-176.54,270.18-142.34,270.18-142.34,0,0,89.99-469.1,139.88-689.33,49.78-220.33,66.58-409.48,102-470.21,35.43-60.84,127.87-14.32,127.87-14.32l70.24,89.88c38.27,48.83,83.99,91.5,135.5,126.51,31.75,21.59,67.28,45.3,94.67,62.75,120.73,76.97,355.89,118.23,338.68,245.04Z"/>
</svg>